<svg width="560" height="643" viewBox="0 0 560 643" fill="none" xmlns="http://www.w3.org/2000/svg">
<mask id="mask0_3_270" style="mask-type:luminance" maskUnits="userSpaceOnUse" x="0" y="0" width="560" height="643">
<path d="M560 0H0V642.51H560V0Z" fill="white"/>
</mask>
<g mask="url(#mask0_3_270)">
<path d="M560 0H0V642.51H560V0Z" fill="#DFEDFC"/>
<mask id="mask1_3_270" style="mask-type:luminance" maskUnits="userSpaceOnUse" x="0" y="0" width="560" height="643">
<path d="M0 0H560V642.51H0V0Z" fill="white"/>
</mask>
<g mask="url(#mask1_3_270)">
<path d="M234.599 127.084C234.599 140.766 224.931 151.858 213.006 151.858C201.08 151.858 191.413 140.766 191.413 127.084C191.413 113.401 201.08 102.31 213.006 102.31C224.931 102.31 234.599 113.401 234.599 127.084Z" fill="#E4E4FF"/>
<path d="M266.803 418.006C266.803 433.405 255.923 445.888 242.501 445.888C229.08 445.888 218.199 433.405 218.199 418.006C218.199 402.607 229.08 390.123 242.501 390.123C255.923 390.123 266.803 402.607 266.803 418.006Z" fill="#E4E4FF"/>
<path d="M201.045 394.504C201.163 394.261 201.282 394.021 201.403 393.782L202.031 394.225C201.482 395.308 200.965 396.435 200.495 397.567L199.845 397.175C200.217 396.275 200.622 395.377 201.045 394.504ZM203.197 390.556C203.832 389.512 204.512 388.489 205.218 387.515L205.789 388.051C205.094 389.011 204.423 390.018 203.798 391.047L203.197 390.556ZM198.531 400.714L199.202 401.054C198.813 402.235 198.462 403.45 198.158 404.668L197.472 404.384C197.78 403.148 198.136 401.913 198.531 400.714ZM207.457 384.678C208.237 383.771 209.059 382.891 209.902 382.063L210.402 382.682C209.572 383.497 208.761 384.364 207.994 385.257L207.457 384.678ZM196.676 408.161L197.373 408.389C197.157 409.639 196.981 410.921 196.853 412.196L196.147 412.027C196.277 410.732 196.455 409.431 196.676 408.161ZM212.541 379.683C213.447 378.934 214.395 378.218 215.357 377.554L215.775 378.241C214.827 378.894 213.894 379.6 213.002 380.337L212.541 379.683ZM195.889 415.953L196.599 416.063C196.559 417.355 196.563 418.67 196.612 419.972L195.902 419.922C195.853 418.601 195.848 417.265 195.889 415.953ZM218.331 375.688C219.341 375.114 220.39 374.578 221.447 374.094L221.773 374.833C220.732 375.31 219.699 375.837 218.704 376.403L218.331 375.688ZM196.185 423.912L196.891 423.902C197.028 425.208 197.211 426.529 197.434 427.828L196.737 427.898C196.51 426.579 196.324 425.238 196.185 423.912ZM224.686 372.782C225.78 372.394 226.905 372.048 228.03 371.756L228.258 372.53C227.15 372.817 226.042 373.157 224.964 373.54L224.686 372.782ZM197.552 431.858L198.237 431.729C198.546 433.016 198.902 434.312 199.296 435.582L198.627 435.769C198.227 434.48 197.865 433.164 197.552 431.858ZM231.46 371.023C232.611 370.829 233.787 370.682 234.956 370.587L235.081 371.379C233.929 371.472 232.77 371.616 231.637 371.808L231.46 371.023ZM199.955 439.612L200.604 439.367C201.081 440.612 201.602 441.854 202.156 443.06L201.53 443.361C200.968 442.136 200.438 440.875 199.955 439.612ZM238.498 370.451C239.682 370.456 240.883 370.511 242.068 370.616L242.085 371.406C240.919 371.303 239.736 371.249 238.57 371.244L238.498 370.451ZM203.343 446.996L203.941 446.641C204.572 447.81 205.248 448.97 205.952 450.09L205.384 450.497C204.67 449.361 203.983 448.183 203.343 446.996ZM245.643 371.081C246.829 371.285 248.027 371.543 249.203 371.846L249.113 372.618C247.955 372.319 246.775 372.066 245.607 371.865L245.643 371.081ZM207.643 453.844L208.177 453.385C208.949 454.451 209.766 455.501 210.604 456.508L210.107 457.014C209.256 455.992 208.427 454.925 207.643 453.844ZM252.733 372.907C253.896 373.308 255.065 373.762 256.207 374.259L256.011 374.994C254.887 374.505 253.735 374.058 252.59 373.663L252.733 372.907ZM212.76 459.987L213.216 459.435C214.112 460.372 215.049 461.287 216 462.155L215.587 462.748C214.62 461.867 213.669 460.938 212.76 459.987ZM259.606 375.889C260.719 376.476 261.831 377.116 262.911 377.791L262.615 378.474C261.551 377.808 260.455 377.178 259.359 376.601L259.606 375.889ZM218.571 465.283L218.94 464.653C219.937 465.441 220.972 466.202 222.017 466.916L221.694 467.58C220.633 466.856 219.582 466.084 218.571 465.283ZM222.441 467.201C223.491 467.903 224.571 468.571 225.653 469.186L225.384 469.885C224.286 469.261 223.19 468.583 222.125 467.87L222.441 467.201ZM265.763 380.6L266.107 379.949C267.149 380.708 268.18 381.516 269.172 382.351L268.783 382.965C267.806 382.143 266.79 381.347 265.763 380.6ZM228.963 470.91C230.077 471.438 231.219 471.926 232.355 472.361L232.189 473.109C231.035 472.667 229.876 472.171 228.745 471.635L228.963 470.91ZM271.658 385.561L272.09 384.986C273.034 385.899 273.96 386.86 274.844 387.841L274.37 388.373C273.499 387.407 272.587 386.461 271.658 385.561ZM235.811 473.53C236.965 473.87 238.142 474.166 239.308 474.41L239.249 475.189C238.064 474.942 236.869 474.641 235.698 474.295L235.811 473.53ZM276.902 391.386L277.415 390.9C278.238 391.949 279.038 393.042 279.793 394.149L279.243 394.585C278.5 393.495 277.713 392.419 276.902 391.386ZM242.826 474.997C243.993 475.142 245.178 475.24 246.346 475.287L246.395 476.079C245.208 476.031 244.006 475.932 242.82 475.785L242.826 474.997ZM281.377 397.949L281.959 397.564C282.642 398.724 283.296 399.922 283.902 401.126L283.291 401.458C282.694 400.272 282.05 399.091 281.377 397.949ZM249.85 475.28C251.008 475.229 252.174 475.127 253.315 474.978L253.47 475.766C252.311 475.917 251.128 476.02 249.951 476.073L249.85 475.28ZM284.976 405.09L285.613 404.814C286.141 406.056 286.636 407.332 287.082 408.606L286.424 408.825C285.984 407.571 285.497 406.314 284.976 405.09ZM256.725 474.382C257.845 474.136 258.966 473.838 260.057 473.496L260.314 474.261C259.206 474.608 258.068 474.91 256.93 475.161L256.725 474.382ZM287.625 412.642L288.302 412.48C288.664 413.778 288.988 415.103 289.265 416.416L288.574 416.519C288.302 415.225 287.982 413.921 287.625 412.642ZM263.295 472.324C264.351 471.888 265.402 471.4 266.419 470.873L266.772 471.598C265.74 472.134 264.673 472.629 263.6 473.071L263.295 472.324ZM289.265 420.434L289.967 420.39C290.156 421.713 290.302 423.055 290.403 424.38L289.694 424.364C289.596 423.059 289.451 421.737 289.265 420.434ZM269.411 469.15C270.381 468.533 271.338 467.864 272.254 467.163L272.696 467.832C271.766 468.543 270.795 469.222 269.81 469.849L269.411 469.15ZM289.858 428.288L290.569 428.363C290.579 429.684 290.544 431.014 290.465 432.317L289.756 432.181C289.834 430.898 289.869 429.588 289.858 428.288ZM274.93 464.924C275.789 464.141 276.627 463.308 277.421 462.448L277.943 463.044C277.136 463.918 276.285 464.763 275.413 465.559L274.93 464.924ZM289.387 436.023L290.09 436.218C289.92 437.502 289.703 438.791 289.445 440.048L288.751 439.796C289.006 438.558 289.22 437.288 289.387 436.023ZM279.716 459.746C280.441 458.817 281.143 457.838 281.8 456.836L282.389 457.347C281.721 458.364 281.009 459.358 280.272 460.302L279.716 459.746ZM287.854 443.473L288.534 443.782C288.19 444.998 287.796 446.215 287.364 447.398L286.702 447.035C287.127 445.87 287.515 444.672 287.854 443.473ZM283.665 453.735C284.248 452.674 284.799 451.57 285.302 450.461L285.943 450.875C285.432 452.001 284.873 453.121 284.282 454.198L283.665 453.735Z" fill="#000054"/>
<path d="M178.266 107.594L178.902 108.02C178.379 109.121 177.915 110.271 177.524 111.438L176.855 111.095C177.256 109.899 177.731 108.721 178.266 107.594ZM180.057 104.347C180.714 103.315 181.438 102.325 182.208 101.404L182.75 101.976C181.999 102.875 181.292 103.842 180.651 104.85L180.057 104.347ZM175.849 114.806L176.543 115.061C176.284 116.293 176.093 117.562 175.974 118.835L175.267 118.672C175.389 117.368 175.585 116.067 175.849 114.806ZM184.692 98.8084C185.567 98.0099 186.502 97.2674 187.471 96.6016L187.888 97.2887C186.942 97.9388 186.03 98.6637 185.175 99.443L184.692 98.8084ZM175.117 122.638L175.827 122.706C175.849 124 175.941 125.315 176.103 126.617L175.399 126.643C175.233 125.311 175.139 123.963 175.117 122.638ZM190.504 94.8139C191.547 94.2928 192.638 93.8406 193.745 93.4691L194.013 94.2301C192.932 94.5932 191.867 95.035 190.848 95.5434L190.504 94.8139ZM176.106 130.633L176.794 130.512C177.091 131.797 177.46 133.084 177.89 134.337L177.229 134.551C176.789 133.267 176.411 131.949 176.106 130.633ZM197.147 92.5841C198.299 92.3677 199.481 92.2291 200.662 92.1713L200.766 92.9633C199.614 93.0198 198.459 93.1553 197.335 93.3662L197.147 92.5841ZM178.751 138.339L179.376 138.036C179.933 139.239 180.557 140.422 181.231 141.555L180.652 141.944C179.961 140.784 179.321 139.571 178.751 138.339ZM204.239 92.2378C205.433 92.34 206.64 92.524 207.828 92.7847L207.762 93.5625C206.603 93.308 205.424 93.1279 204.259 93.0283L204.239 92.2378ZM182.906 145.313L183.431 144.843C184.216 145.891 185.062 146.904 185.946 147.851L185.482 148.394C184.577 147.424 183.71 146.387 182.906 145.313ZM211.378 93.8074C212.544 94.2239 213.708 94.7228 214.836 95.2897L214.603 96.0073C213.501 95.454 212.366 94.967 211.228 94.5604L211.378 93.8074ZM188.34 151.142L188.736 150.533C189.7 151.363 190.717 152.144 191.76 152.855C192.073 153.069 192.394 153.28 192.713 153.482L192.413 154.162C192.086 153.955 191.758 153.739 191.437 153.52C190.369 152.792 189.328 151.992 188.34 151.142ZM218.151 97.2065C218.314 97.3131 218.476 97.4222 218.638 97.5326C219.543 98.1503 220.432 98.8211 221.28 99.5268L220.895 100.145C220.067 99.4557 219.198 98.8004 218.314 98.1971C218.156 98.0893 217.998 97.9832 217.839 97.8791L218.151 97.2065ZM195.974 155.292C197.083 155.824 198.224 156.289 199.366 156.673L199.228 157.43C198.058 157.037 196.889 156.561 195.753 156.016L195.974 155.292ZM223.723 102.774L224.177 102.22C225.097 103.175 225.979 104.196 226.799 105.255L226.282 105.736C225.482 104.703 224.621 103.706 223.723 102.774ZM202.841 157.601C204.002 157.832 205.181 157.988 206.345 158.064L206.378 158.856C205.185 158.778 203.977 158.618 202.788 158.381L202.841 157.601ZM228.532 108.985L229.103 108.583C229.811 109.73 230.47 110.933 231.059 112.156L230.441 112.473C229.865 111.278 229.223 110.105 228.532 108.985ZM209.833 158.058C210.982 157.978 212.131 157.819 213.25 157.584L213.45 158.365C212.304 158.605 211.126 158.768 209.949 158.85L209.833 158.058ZM231.984 116.147L232.64 115.92C233.1 117.196 233.498 118.508 233.824 119.821L233.141 119.957C232.822 118.675 232.433 117.393 231.984 116.147ZM216.552 156.652C217.624 156.267 218.679 155.802 219.688 155.272L220.044 155.996C219.011 156.539 217.93 157.015 216.831 157.409L216.552 156.652ZM233.894 123.845L234.595 123.804C234.782 125.135 234.899 126.483 234.942 127.81L234.232 127.757C234.19 126.461 234.076 125.145 233.894 123.845ZM222.614 153.463C223.546 152.793 224.445 152.048 225.285 151.25L225.778 151.875C224.917 152.694 223.996 153.457 223.041 154.143L222.614 153.463ZM234.149 131.635L234.858 131.784C234.757 133.093 234.583 134.4 234.34 135.669L233.645 135.428C233.882 134.189 234.052 132.913 234.149 131.635ZM227.663 148.662C228.398 147.747 229.087 146.763 229.711 145.74L230.311 146.231C229.673 147.279 228.967 148.286 228.214 149.224L227.663 148.662ZM232.725 139.076L233.398 139.407C233.017 140.614 232.563 141.804 232.047 142.944L231.406 142.529C231.909 141.417 232.353 140.255 232.725 139.076Z" fill="#000054"/>
<g opacity="0.876899">
<path d="M87.5 332.078C81.9033 332.078 77.35 326.854 77.35 320.433C77.35 314.011 81.9033 308.787 87.5 308.787C93.0966 308.787 97.65 314.011 97.65 320.433C97.65 326.854 93.0966 332.078 87.5 332.078ZM87.5 310.393C82.6753 310.393 78.75 314.897 78.75 320.433C78.75 325.968 82.6753 330.472 87.5 330.472C92.3247 330.472 96.25 325.968 96.25 320.433C96.25 314.897 92.3247 310.393 87.5 310.393Z" fill="#000054"/>
</g>
<path d="M456.917 144.817C451.079 157.396 436.597 161.175 424.57 153.258C412.543 145.34 407.526 128.725 413.363 116.146C419.201 103.567 433.684 99.7881 445.71 107.705C457.737 115.623 462.755 132.238 456.917 144.817Z" fill="#D0D0FF"/>
<path d="M432.613 142.286L431.131 145.473L427.256 142.924L428.671 139.879C426.005 137.899 423.7 135.372 422.545 133.223L426.928 129.657C428.222 131.971 430.304 134.279 432.421 135.671C434.262 136.882 435.109 136.914 435.43 136.224C436.604 133.696 425.023 128.74 428.506 121.245C430.014 117.999 433.536 116.752 438.348 119.057L439.803 115.927L443.678 118.476L442.25 121.547C444.188 123.085 445.914 124.935 447.053 126.884L442.82 130.512C441.39 128.258 439.832 126.595 438.156 125.492C436.259 124.244 435.387 124.422 435.067 125.112C433.946 127.523 445.513 132.51 442.071 139.918C440.629 143.019 437.231 144.31 432.613 142.286Z" fill="white"/>
<path d="M407.965 160.704C410.411 168.713 406.033 178.286 398.187 182.085C390.342 185.884 381.999 182.471 379.552 174.461C377.106 166.452 381.483 156.88 389.329 153.081C397.175 149.282 405.518 152.694 407.965 160.704Z" fill="#D0D0FF"/>
<path d="M397.264 173.462L397.888 175.501L395.347 176.729L394.751 174.781C392.916 175.541 391.017 175.89 389.727 175.732L390.129 171.91C391.538 172.052 393.263 171.745 394.651 171.075C395.858 170.491 396.212 170.025 396.077 169.583C395.582 167.966 389.009 172.64 387.542 167.845C386.906 165.768 387.849 163.308 390.674 161.458L390.062 159.456L392.602 158.228L393.204 160.193C394.575 159.678 395.981 159.401 397.188 159.492L396.87 163.253C395.429 163.21 394.162 163.463 393.064 163.994C391.82 164.596 391.536 165.155 391.671 165.596C392.143 167.139 398.723 162.484 400.173 167.224C400.78 169.208 399.904 171.615 397.264 173.462Z" fill="white"/>
<path d="M442.613 184.603C440.071 190.556 433.364 192.511 427.632 188.971C421.901 185.431 419.315 177.736 421.858 171.783C424.4 165.831 431.107 163.875 436.838 167.415C442.57 170.955 445.155 178.651 442.613 184.603Z" fill="#D0D0FF"/>
<path d="M431.226 183.746L430.58 185.256L428.731 184.115L429.348 182.673C428.072 181.781 426.958 180.63 426.387 179.64L428.384 177.915C429.023 178.98 430.03 180.032 431.04 180.655C431.919 181.197 432.315 181.201 432.455 180.875C432.967 179.677 427.48 177.511 428.999 173.96C429.657 172.422 431.285 171.793 433.569 172.808L434.203 171.324L436.052 172.466L435.429 173.921C436.358 174.615 437.192 175.457 437.753 176.354L435.827 178.106C435.125 177.071 434.372 176.313 433.573 175.82C432.668 175.261 432.263 175.355 432.123 175.682C431.634 176.825 437.115 179.005 435.613 182.515C434.985 183.984 433.415 184.632 431.226 183.746Z" fill="white"/>
<path d="M387.55 136.761H385.722V121.735H387.55V136.761Z" fill="#000054"/>
<path d="M393.184 130.297H380.088V128.2H393.184V130.297Z" fill="#000054"/>
<path d="M402.308 109.67H399.177V83.9344H402.308V109.67Z" fill="#000054"/>
<path d="M411.958 98.5975H389.527V95.006H411.958V98.5975Z" fill="#000054"/>
<path d="M457.372 208.676H454.564V185.587H457.372V208.676Z" fill="#000054"/>
<path d="M466.031 198.742H445.907V195.52H466.031V198.742Z" fill="#000054"/>
</g>
<mask id="mask2_3_270" style="mask-type:luminance" maskUnits="userSpaceOnUse" x="0" y="0" width="560" height="643">
<path d="M0 0H560V642.51H0V0Z" fill="white"/>
</mask>
<g mask="url(#mask2_3_270)">
<path d="M427 429.258H136.082V182.481H427V429.258Z" fill="white"/>
<path d="M427.7 430.061H135.382V181.678H427.7V430.061ZM136.782 428.454H426.3V183.284H136.782V428.454Z" fill="#000054"/>
<path d="M336.258 214.552H226.824V212.946H336.258V214.552Z" fill="#3334CF"/>
<path d="M300.935 232.221H262.147V230.615H300.935V232.221Z" fill="#3334CF"/>
<path d="M512.07 541.759H59.5742V540.555H512.07V541.759Z" fill="#1B1B42"/>
<path d="M180.041 401.061H156.241V371.662H180.041V401.061Z" fill="#D0D0FF"/>
<path d="M217.841 401.719H194.041V333.393H217.841V401.719Z" fill="#D0D0FF"/>
<path d="M255.641 401.98H231.841V275.936H255.641V401.98Z" fill="#D0D0FF"/>
<path d="M293.441 401.914H269.641V312.989H293.441V401.914Z" fill="#D0D0FF"/>
<path d="M331.241 401.67H307.441V284.85H331.241V401.67Z" fill="#D0D0FF"/>
<path d="M369.041 401.66H345.241V296.146H369.041V401.66Z" fill="#D0D0FF"/>
<path d="M406.841 401.801H383.041V239.421H406.841V401.801Z" fill="#D0D0FF"/>
<path d="M167.072 376.641L206.456 337.669L243.224 280.004L281.649 318.886L317.42 289.938L356.091 301.413L395.513 244.519" stroke="#2A00FF" stroke-width="15" stroke-miterlimit="18"/>
</g>
<mask id="mask3_3_270" style="mask-type:luminance" maskUnits="userSpaceOnUse" x="0" y="0" width="560" height="643">
<path d="M0 0H560V642.51H0V0Z" fill="white"/>
</mask>
<g mask="url(#mask3_3_270)">
<path d="M131.397 476.319C133.641 462.507 132.095 447.853 127.059 435.21C122.024 422.567 113.528 412.006 103.225 405.583C108.459 413.053 109.839 423.369 110.403 433.164C110.966 442.959 110.965 453.077 114.117 462.108C117.27 471.139 124.661 478.903 132.71 477.676L131.397 476.319Z" fill="#3334CF"/>
<path d="M131.544 479.769C129.315 465.956 130.883 451.315 135.943 438.698C141.003 426.081 149.526 415.558 159.853 409.179C154.601 416.625 153.206 426.93 152.628 436.717C152.052 446.505 152.039 456.619 148.87 465.632C145.701 474.646 138.288 482.378 130.228 481.12L131.544 479.769Z" fill="#3334CF"/>
<path d="M122.237 479.832C116.974 470.097 115.476 457.505 118.248 446.303C121.02 435.102 128.011 425.494 136.862 420.723C135.08 434.856 144.39 448.302 142.829 462.471C141.818 471.643 135.815 479.76 128.373 482.018L122.237 479.832Z" fill="#D0D0FF"/>
<path d="M126.117 492.049C126.182 478.025 130.513 464.112 138.266 453.02C146.019 441.928 157.151 433.718 169.494 429.99C162.461 435.988 159.097 445.71 156.713 455.125C154.328 464.54 152.498 474.409 147.442 482.442C142.387 490.474 132.96 496.227 124.447 493.05L126.117 492.049Z" fill="#000054"/>
<path d="M129.99 492.812C129.924 478.783 125.94 464.858 118.815 453.749C111.689 442.639 101.461 434.407 90.1229 430.656C96.5845 436.668 99.6791 446.399 101.873 455.822C104.067 465.244 105.752 475.121 110.399 483.165C115.046 491.208 123.706 496.98 131.523 493.816L129.99 492.812Z" fill="#000054"/>
<path d="M150.58 541.157H106.234L98.6103 488.179H158.204L150.58 541.157Z" fill="white"/>
<path d="M151.025 541.759H105.789L97.9916 487.576H158.823L151.025 541.759ZM106.68 540.554H150.134L157.585 488.781H99.2292L106.68 540.554Z" fill="#000054"/>
</g>
<mask id="mask4_3_270" style="mask-type:luminance" maskUnits="userSpaceOnUse" x="0" y="0" width="560" height="643">
<path d="M0 0H560V642.51H0V0Z" fill="white"/>
</mask>
<g mask="url(#mask4_3_270)">
<path d="M209.317 263.466H74.1944V141.689H209.317V263.466Z" fill="white"/>
<path d="M210.017 264.269H73.4944V140.886H210.017V264.269ZM74.8938 262.663H208.616V142.492H74.8938V262.663Z" fill="#000054"/>
<path d="M190.835 243.789H92.8591V198.431H93.5935V242.946H190.835V243.789Z" fill="#000054"/>
<path d="M123.026 181.44H92.5506V161.639H123.026V181.44Z" fill="#D0D0FF"/>
<path d="M188.605 164.391H135.891V163.548H188.605V164.391Z" fill="#000054"/>
<path d="M188.605 171.961H135.891V171.118H188.605V171.961Z" fill="#D0D0FF"/>
<path d="M188.605 179.53H135.891V178.687H188.605V179.53Z" fill="#D0D0FF"/>
<path d="M113.238 243.368H106.873V216.992H113.238V243.368Z" fill="#D0D0FF"/>
<path d="M119.602 243.369H113.238V204.157H119.602V243.369Z" fill="#000054"/>
<path d="M136.982 243.366H130.617V208.643H136.982V243.366Z" fill="#D0D0FF"/>
<path d="M143.347 243.366H136.982V230.515H143.347V243.366Z" fill="#000054"/>
<path d="M160.726 243.623H154.362V216.019H160.726V243.623Z" fill="#D0D0FF"/>
<path d="M167.09 243.623H160.726V209.915H167.09V243.623Z" fill="#000054"/>
<path d="M184.47 243.298H178.106V226.64H184.47V243.298Z" fill="#D0D0FF"/>
<path d="M190.835 243.298H184.47V203.554H190.835V243.298Z" fill="#000054"/>
</g>
<mask id="mask5_3_270" style="mask-type:luminance" maskUnits="userSpaceOnUse" x="0" y="0" width="560" height="643">
<path d="M0 0H560V642.51H0V0Z" fill="white"/>
</mask>
<g mask="url(#mask5_3_270)">
<path d="M470.778 519.41L474.978 540.956L446.453 540.894L458.353 529.11L457.478 518.406L470.778 519.41Z" fill="#1B1B42"/>
<path d="M462.74 534.127L458.015 529.571L458.691 528.649L463.416 533.204L462.74 534.127Z" fill="#EBEBFF"/>
<path d="M414.603 519.071L416.703 540.956H386.078L400.078 529.11V518.268L414.603 519.071Z" fill="#1B1B42"/>
<path d="M404.465 534.127L399.74 529.571L400.416 528.649L405.141 533.204L404.465 534.127Z" fill="#EBEBFF"/>
<path d="M475.853 522.02L471.303 522.092L457.8 522.301L450.303 522.422C442.953 493.276 436.072 464.708 430.444 437.715C429.338 432.422 428.281 427.186 427.287 422.029C423.584 402.907 420.63 384.716 418.747 367.858C418.341 364.236 417.984 360.678 417.683 357.184C417.438 354.397 417.228 351.65 417.053 348.944L450.653 355.369C450.989 359.023 451.346 362.686 451.724 366.372C456.785 416.142 465.43 468.451 475.853 522.02Z" fill="#3334CF"/>
<path d="M432.803 354.164L431.739 367.271L427.448 420.022L427.287 422.029L419.153 522.02H394.072C394.569 464.178 396.214 409.195 402.822 368.581C403.305 365.585 403.823 362.678 404.362 359.842L417.683 357.184L432.803 354.164Z" fill="#3334CF"/>
<path d="M430.709 441.381L421.143 384.894L421.83 384.741L431.397 441.228L430.709 441.381Z" fill="#1B1B42"/>
<path d="M451.724 366.372L431.739 367.272L418.747 367.858L402.822 368.581C403.305 365.585 403.823 362.678 404.362 359.843L417.683 357.184C417.438 354.398 417.228 351.651 417.053 348.944L450.653 355.369C450.989 359.024 451.346 362.686 451.724 366.372Z" fill="#1B1B42"/>
<path d="M414.34 293.935L427.212 292.089L454.084 298.551L454.238 354.132C454.242 355.656 453.697 357.114 452.731 358.16C451.843 359.123 450.668 359.661 449.446 359.666L404.363 359.843L395.674 329.751L404.041 301.32L414.34 293.935Z" fill="#FFA120"/>
<path d="M430.395 306.114C427.616 306.114 424.922 304.981 422.823 302.715L423.183 302.276C427.181 306.594 433.464 306.587 438.122 302.262L438.452 302.73C436.023 304.986 433.167 306.114 430.395 306.114Z" fill="#1B1B42"/>
<path d="M387.303 328.665L398.853 345.33L400.953 345.932L402.685 326.536L390.865 320.137L387.303 328.665Z" fill="#FFBC95"/>
<path d="M425.803 290.315L408.935 293.378C404.266 294.226 400.258 297.653 398.215 302.544L390.865 320.137L402.685 326.536L403.928 312.602L425.803 290.315Z" fill="#FFA120"/>
<path d="M466.137 342.68C465.731 349.563 462.105 352.494 457.499 353.699C456.582 352.406 456.023 350.751 456.023 348.944C456.023 344.808 458.948 341.451 462.553 341.451C463.876 341.451 465.108 341.909 466.137 342.68Z" fill="#FE5B52"/>
<path d="M400.514 350.046L399.992 349.979L403.667 312.568L404.189 312.636L400.514 350.046Z" fill="#1B1B42"/>
<path d="M478.209 255.443V276.956L469.56 284.006H478.209H510.381V255.443H478.209Z" fill="white"/>
<path d="M510.722 284.398H468.491L477.868 276.754V255.052H510.722V284.398ZM470.631 283.614H510.04V255.835H478.551V277.158L470.631 283.614Z" fill="#000054"/>
<path d="M493.856 277.318L488.603 271.514L489.55 270.386L493.514 274.766L500.255 260.587L501.453 261.337L493.856 277.318Z" fill="#000054"/>
<path d="M459.407 301.665C458.121 296.955 454.198 293.82 449.572 293.806L431.878 293.753L443.631 311.697L447.621 323.414L464.009 318.519L459.407 301.665Z" fill="#FFA120"/>
<path d="M469.416 339.457C469.39 345.88 465.897 349.104 461.32 350.869C456.549 352.707 450.608 352.963 446.17 353.6C438.874 354.645 431.556 355.334 424.241 355.94L405.728 358.723L403.402 355.551C405.6 351.625 411.845 346.008 423.42 347.254L452.579 336.05L448.562 324.516L464.719 319.817L469.01 335.192C469.303 336.754 469.431 338.167 469.416 339.457Z" fill="#FFBC95"/>
<path d="M452.062 336.384L443.596 312.07L444.126 311.83L452.593 336.144L452.062 336.384Z" fill="#1B1B42"/>
<path d="M430.487 301.09C426.277 301.09 422.863 297.174 422.863 292.343V273.382H438.112V292.343C438.112 297.174 434.698 301.09 430.487 301.09Z" fill="#FFBC95"/>
<path d="M436.32 246.337C436.22 244.991 436.266 243.603 436.621 242.272C436.969 240.95 437.715 239.703 438.789 238.955C439.323 238.586 439.915 238.328 440.524 238.197C441.133 238.063 441.755 238.049 442.364 238.115C443.586 238.25 444.761 238.727 445.795 239.458C446.828 240.186 447.717 241.213 448.27 242.47C448.833 243.719 448.965 245.227 448.629 246.584C448.299 247.948 447.592 249.132 446.772 250.138C445.934 251.134 444.979 251.98 443.97 252.71L443.855 252.517C444.813 251.724 445.729 250.862 446.5 249.859C447.271 248.864 447.91 247.717 448.183 246.458C448.459 245.206 448.345 243.865 447.82 242.73C447.311 241.585 446.473 240.65 445.513 239.96C444.551 239.267 443.446 238.809 442.309 238.674C441.176 238.531 440 238.74 439.016 239.387C438.032 240.036 437.325 241.152 436.96 242.394C436.77 243.015 436.654 243.667 436.586 244.326C436.521 244.986 436.515 245.653 436.526 246.32L436.32 246.337Z" fill="#1B1B42"/>
<path d="M447.721 246.395C447.747 249.928 445.244 252.848 442.131 252.917C439.018 252.986 436.473 250.178 436.446 246.646C436.42 243.113 438.923 240.193 442.036 240.124C445.15 240.054 447.695 242.862 447.721 246.395Z" fill="#1B1B42"/>
<path d="M446.734 281.854L443.673 276.673L444.882 282.453L433.567 277.217L414.884 287.149L416.335 269.464C411.309 266.784 407.626 248.871 426.604 245.418C430.051 244.791 433.596 245.063 436.813 246.531C446.618 251.003 450.014 263.363 451.04 280.466L446.734 281.854Z" fill="#1B1B42"/>
<path d="M433.242 281.342C431.645 286.849 427.68 288.896 422.805 290.392L422.58 283.202L433.242 281.342Z" fill="#2F2F32" fill-opacity="0.5"/>
<path d="M437.628 254.907L437.314 279.341C437.314 279.341 428.323 287.015 421.974 285.007C419.844 284.336 418.381 281.629 417.378 278.241C416.901 276.63 416.529 274.857 416.235 273.074C415.195 266.668 415.196 260.102 415.196 260.102L437.628 254.907Z" fill="#FFBC95"/>
<path d="M419.275 270.278C419.281 271.005 418.901 271.602 418.426 271.613C417.953 271.624 417.564 271.043 417.559 270.316C417.553 269.589 417.933 268.992 418.407 268.981C418.881 268.97 419.27 269.551 419.275 270.278Z" fill="#1B1B42"/>
<path d="M425.856 269.597C425.863 270.439 425.434 271.131 424.899 271.143C424.364 271.155 423.926 270.482 423.919 269.641C423.913 268.8 424.342 268.108 424.876 268.096C425.411 268.083 425.85 268.756 425.856 269.597Z" fill="#1B1B42"/>
<path d="M427.993 266.43C427.961 266.799 426.866 266.909 425.649 266.696C424.431 266.484 423.395 266.577 423.584 265.661C423.739 264.913 424.7 264.955 425.918 265.168C427.136 265.38 428.021 266.106 427.993 266.43Z" fill="#1B1B42"/>
<path d="M416.121 267.479C416.166 267.843 417.1 267.806 418.121 267.432C419.143 267.058 420.026 267.012 419.821 266.124C419.653 265.399 418.84 265.57 417.818 265.944C416.796 266.318 416.081 267.16 416.121 267.479Z" fill="#1B1B42"/>
<path d="M432.255 272.686C432.267 274.256 431.155 275.553 429.772 275.584C428.389 275.615 427.258 274.368 427.246 272.798C427.234 271.229 428.346 269.931 429.729 269.9C431.113 269.869 432.244 271.116 432.255 272.686Z" fill="#FE5B52"/>
<path d="M418.552 275.813C418.559 276.805 418.12 277.68 417.446 278.207C416.968 276.593 416.595 274.816 416.299 273.029C417.557 273.161 418.541 274.348 418.552 275.813Z" fill="#FE5B52"/>
<path d="M421.268 271.424C421.297 271.676 421.246 271.94 421.162 272.171C421.076 272.404 420.961 272.607 420.846 272.792C420.618 273.163 420.394 273.488 420.338 273.777C420.308 273.916 420.319 274.062 420.352 274.207C420.382 274.348 420.454 274.474 420.555 274.596C420.761 274.838 421.084 275.02 421.435 275.156L421.412 275.468C420.997 275.533 420.544 275.455 420.153 275.137C419.958 274.98 419.791 274.743 419.7 274.467C419.623 274.196 419.585 273.89 419.654 273.599C419.797 273.022 420.124 272.671 420.381 272.364C420.65 272.05 420.878 271.784 420.992 271.409L421.268 271.424Z" fill="#1B1B42"/>
<path d="M420.659 277.968C421.605 281.271 425.544 279.177 425.823 276.365L420.659 277.968Z" fill="white"/>
<path d="M414.471 263.942C421.073 263.783 426.609 262.974 431.806 259.991C432.405 264.846 434.272 267.156 436.78 268.404L442.005 263.333L439.212 253.385L424.912 252.809L413.91 259.296L414.471 263.942Z" fill="#1B1B42"/>
<path d="M440.956 272.07C439.547 274.402 437.254 275.405 435.835 274.311C434.416 273.216 434.408 270.437 435.817 268.105C437.226 265.773 439.519 264.77 440.938 265.864C442.357 266.959 442.365 269.737 440.956 272.07Z" fill="#FFBC95"/>
<path d="M437.167 271.772C437.062 271.36 437.028 270.922 437.069 270.476C437.109 270.031 437.238 269.572 437.476 269.175C437.714 268.778 438.057 268.466 438.427 268.28C438.797 268.091 439.189 268.012 439.571 268.031L439.62 268.337C439.293 268.52 438.987 268.689 438.719 268.895C438.452 269.1 438.228 269.338 438.052 269.621C437.874 269.902 437.754 270.236 437.659 270.596C437.566 270.958 437.508 271.346 437.441 271.751L437.167 271.772Z" fill="#1B1B42"/>
<path d="M443.935 252.614C443.202 252.148 442.573 251.606 441.952 251.072L440.158 249.446C439.57 248.909 438.987 248.379 438.382 247.869C437.777 247.351 437.153 246.872 436.454 246.344C437.296 246.22 438.144 246.429 438.921 246.769C439.699 247.119 440.412 247.618 441.048 248.203C441.686 248.788 442.25 249.459 442.741 250.191C443.224 250.93 443.65 251.716 443.935 252.614Z" fill="#FFA120"/>
<path d="M419.387 359.129H400.837V352.838H419.387V359.129Z" fill="#1B1B42"/>
<path d="M406.787 359.131H364.787L346.353 313.45H388.353L406.787 359.131Z" fill="#EBEBFF"/>
<path d="M391.241 357.088C390.255 357.294 389.667 358.22 389.621 359.322V354.342C389.621 353.339 388.997 352.424 388.128 352.31C387.132 352.18 386.292 353.043 386.245 354.144V352.137C386.245 351.121 385.608 350.196 384.728 350.096C383.715 349.979 382.861 350.888 382.861 352.026V354.144C382.815 353.043 381.975 352.18 380.979 352.31C380.11 352.424 379.486 353.339 379.486 354.342V358.294C379.439 357.285 378.769 356.031 377.853 355.933C375.972 355.733 376.386 359.526 376.386 359.526C376.934 363.362 377.923 363.786 379.928 363.95C383.055 364.207 386.223 364.197 389.428 363.947C391.443 363.79 391.76 363.541 392.641 360.1C392.938 358.62 392.684 356.787 391.241 357.088Z" fill="#FFBC95"/>
<path d="M379.531 355.579C379.671 356.389 379.721 357.203 379.748 358.017C379.759 358.424 379.76 358.831 379.746 359.239C379.733 359.647 379.707 360.055 379.648 360.464L379.443 360.471C379.364 360.066 379.318 359.66 379.285 359.254C379.252 358.847 379.234 358.44 379.226 358.033C379.213 357.218 379.225 356.403 379.326 355.585L379.531 355.579Z" fill="#D18572"/>
<path d="M382.964 354.141C383.106 355.001 383.158 355.865 383.185 356.729C383.197 357.161 383.199 357.593 383.186 358.026C383.173 358.459 383.148 358.892 383.089 359.327L382.884 359.333C382.805 358.903 382.758 358.472 382.725 358.041C382.691 357.609 382.672 357.178 382.663 356.745C382.649 355.881 382.659 355.016 382.759 354.147L382.964 354.141Z" fill="#D18572"/>
<path d="M386.348 354.139C386.499 354.953 386.56 355.771 386.598 356.59C386.615 357 386.621 357.41 386.613 357.821C386.605 358.233 386.584 358.644 386.531 359.057L386.326 359.068C386.242 358.661 386.19 358.253 386.152 357.844C386.113 357.435 386.089 357.026 386.076 356.616C386.052 355.796 386.053 354.975 386.143 354.149L386.348 354.139Z" fill="#D18572"/>
<path d="M390.731 357.335C390.573 357.567 390.463 357.85 390.356 358.139C390.252 358.43 390.152 358.728 390.055 359.03C389.957 359.331 389.858 359.634 389.75 359.935C389.642 360.237 389.528 360.539 389.386 360.834L389.188 360.772C389.198 360.432 389.245 360.102 389.31 359.776C389.375 359.451 389.461 359.13 389.567 358.816C389.675 358.503 389.797 358.193 389.959 357.9C390.12 357.614 390.313 357.314 390.614 357.142L390.731 357.335Z" fill="#D18572"/>
</g>
</g>
</svg>
