<svg width="684" height="1024" viewBox="0 0 684 1024" fill="none" xmlns="http://www.w3.org/2000/svg">
<rect x="-1" y="-9.80597" width="685" height="1038.48" fill="#DFEDFC"/>
<mask id="mask0_6_2" style="mask-type:luminance" maskUnits="userSpaceOnUse" x="61" y="265" width="560" height="643">
<path d="M621 265H61V907.51H621V265Z" fill="white"/>
</mask>
<g mask="url(#mask0_6_2)">
<path d="M621 265H61V907.51H621V265Z" fill="#DFEDFC"/>
<mask id="mask1_6_2" style="mask-type:luminance" maskUnits="userSpaceOnUse" x="61" y="265" width="560" height="643">
<path d="M61 265H621V907.51H61V265Z" fill="white"/>
</mask>
<g mask="url(#mask1_6_2)">
<path d="M295.599 392.084C295.599 405.766 285.931 416.858 274.006 416.858C262.08 416.858 252.413 405.766 252.413 392.084C252.413 378.401 262.08 367.31 274.006 367.31C285.931 367.31 295.599 378.401 295.599 392.084Z" fill="#E4E4FF"/>
<path d="M327.803 683.006C327.803 698.405 316.923 710.888 303.501 710.888C290.08 710.888 279.199 698.405 279.199 683.006C279.199 667.607 290.08 655.123 303.501 655.123C316.923 655.123 327.803 667.607 327.803 683.006Z" fill="#E4E4FF"/>
<path d="M262.045 659.504C262.163 659.261 262.282 659.021 262.403 658.782L263.031 659.225C262.482 660.308 261.965 661.435 261.495 662.567L260.845 662.175C261.217 661.275 261.622 660.377 262.045 659.504ZM264.197 655.556C264.832 654.512 265.512 653.489 266.218 652.515L266.789 653.051C266.094 654.011 265.423 655.018 264.798 656.047L264.197 655.556ZM259.531 665.714L260.202 666.054C259.813 667.235 259.462 668.45 259.158 669.668L258.472 669.384C258.78 668.148 259.136 666.913 259.531 665.714ZM268.457 649.678C269.237 648.771 270.059 647.891 270.902 647.063L271.402 647.682C270.572 648.497 269.761 649.364 268.994 650.257L268.457 649.678ZM257.676 673.161L258.373 673.389C258.157 674.639 257.981 675.921 257.853 677.196L257.147 677.027C257.277 675.732 257.455 674.431 257.676 673.161ZM273.541 644.683C274.447 643.934 275.395 643.218 276.357 642.554L276.775 643.241C275.827 643.894 274.894 644.6 274.002 645.337L273.541 644.683ZM256.889 680.953L257.599 681.063C257.559 682.355 257.563 683.67 257.612 684.972L256.902 684.922C256.853 683.601 256.848 682.265 256.889 680.953ZM279.331 640.688C280.341 640.114 281.39 639.578 282.447 639.094L282.773 639.833C281.732 640.31 280.699 640.837 279.704 641.403L279.331 640.688ZM257.185 688.912L257.891 688.902C258.028 690.208 258.211 691.529 258.434 692.828L257.737 692.898C257.51 691.579 257.324 690.238 257.185 688.912ZM285.686 637.782C286.78 637.394 287.905 637.048 289.03 636.756L289.258 637.53C288.15 637.817 287.042 638.157 285.964 638.54L285.686 637.782ZM258.552 696.858L259.237 696.729C259.546 698.016 259.902 699.312 260.296 700.582L259.627 700.769C259.227 699.48 258.865 698.164 258.552 696.858ZM292.46 636.023C293.611 635.829 294.787 635.682 295.956 635.587L296.081 636.379C294.929 636.472 293.77 636.616 292.637 636.808L292.46 636.023ZM260.955 704.611L261.604 704.367C262.081 705.612 262.603 706.854 263.156 708.06L262.53 708.361C261.968 707.136 261.438 705.875 260.955 704.611ZM299.498 635.451C300.682 635.456 301.883 635.511 303.068 635.616L303.085 636.406C301.919 636.303 300.736 636.249 299.57 636.244L299.498 635.451ZM264.343 711.996L264.941 711.641C265.572 712.81 266.248 713.97 266.952 715.09L266.384 715.497C265.67 714.361 264.983 713.183 264.343 711.996ZM306.643 636.081C307.829 636.285 309.027 636.543 310.203 636.846L310.113 637.618C308.955 637.319 307.775 637.066 306.607 636.865L306.643 636.081ZM268.643 718.844L269.177 718.385C269.949 719.451 270.766 720.501 271.604 721.508L271.107 722.014C270.256 720.992 269.427 719.925 268.643 718.844ZM313.733 637.907C314.896 638.308 316.065 638.762 317.207 639.259L317.011 639.994C315.887 639.505 314.735 639.058 313.59 638.663L313.733 637.907ZM273.76 724.987L274.216 724.435C275.112 725.372 276.049 726.287 277 727.155L276.587 727.748C275.62 726.867 274.669 725.938 273.76 724.987ZM320.606 640.889C321.719 641.476 322.831 642.116 323.911 642.791L323.615 643.474C322.551 642.808 321.455 642.178 320.359 641.601L320.606 640.889ZM279.571 730.283L279.94 729.653C280.937 730.441 281.972 731.202 283.017 731.916L282.694 732.58C281.633 731.856 280.582 731.084 279.571 730.283ZM283.441 732.201C284.491 732.903 285.571 733.571 286.653 734.186L286.384 734.885C285.286 734.261 284.19 733.583 283.125 732.87L283.441 732.201ZM326.763 645.6L327.107 644.949C328.149 645.708 329.18 646.516 330.172 647.351L329.783 647.965C328.806 647.143 327.79 646.347 326.763 645.6ZM289.963 735.91C291.077 736.438 292.219 736.926 293.355 737.361L293.189 738.109C292.035 737.667 290.876 737.171 289.745 736.635L289.963 735.91ZM332.658 650.561L333.09 649.986C334.034 650.899 334.96 651.86 335.844 652.841L335.37 653.373C334.499 652.407 333.587 651.461 332.658 650.561ZM296.811 738.53C297.965 738.87 299.141 739.166 300.308 739.41L300.249 740.189C299.064 739.942 297.869 739.641 296.698 739.295L296.811 738.53ZM337.902 656.386L338.415 655.9C339.238 656.949 340.038 658.042 340.793 659.149L340.243 659.585C339.5 658.495 338.713 657.419 337.902 656.386ZM303.826 739.997C304.993 740.142 306.178 740.24 307.346 740.287L307.395 741.079C306.208 741.031 305.006 740.932 303.82 740.785L303.826 739.997ZM342.377 662.949L342.959 662.564C343.642 663.724 344.296 664.922 344.902 666.126L344.291 666.458C343.694 665.272 343.05 664.091 342.377 662.949ZM310.85 740.28C312.008 740.229 313.174 740.127 314.315 739.978L314.47 740.766C313.311 740.917 312.128 741.02 310.951 741.073L310.85 740.28ZM345.976 670.09L346.613 669.814C347.141 671.056 347.636 672.332 348.082 673.606L347.424 673.825C346.984 672.571 346.497 671.314 345.976 670.09ZM317.725 739.382C318.845 739.136 319.966 738.838 321.057 738.496L321.314 739.261C320.206 739.608 319.068 739.91 317.93 740.161L317.725 739.382ZM348.625 677.642L349.302 677.48C349.664 678.778 349.988 680.103 350.265 681.416L349.574 681.519C349.302 680.225 348.982 678.921 348.625 677.642ZM324.295 737.324C325.351 736.888 326.402 736.4 327.419 735.873L327.772 736.598C326.74 737.134 325.673 737.629 324.6 738.071L324.295 737.324ZM350.265 685.434L350.967 685.39C351.156 686.713 351.302 688.055 351.403 689.38L350.694 689.364C350.596 688.059 350.451 686.737 350.265 685.434ZM330.411 734.15C331.381 733.533 332.338 732.864 333.254 732.163L333.696 732.832C332.766 733.543 331.795 734.222 330.81 734.849L330.411 734.15ZM350.858 693.288L351.569 693.363C351.579 694.684 351.544 696.014 351.465 697.317L350.756 697.181C350.834 695.898 350.869 694.588 350.858 693.288ZM335.93 729.924C336.789 729.141 337.627 728.308 338.421 727.448L338.943 728.044C338.136 728.918 337.285 729.763 336.413 730.559L335.93 729.924ZM350.387 701.023L351.09 701.218C350.92 702.502 350.703 703.791 350.445 705.048L349.751 704.796C350.006 703.558 350.22 702.288 350.387 701.023ZM340.716 724.746C341.441 723.817 342.143 722.838 342.8 721.836L343.389 722.347C342.721 723.364 342.009 724.358 341.272 725.302L340.716 724.746ZM348.854 708.473L349.534 708.782C349.19 709.998 348.796 711.215 348.364 712.398L347.702 712.035C348.127 710.87 348.515 709.672 348.854 708.473ZM344.665 718.735C345.248 717.674 345.799 716.57 346.302 715.461L346.943 715.875C346.432 717.001 345.873 718.121 345.282 719.198L344.665 718.735Z" fill="#000054"/>
<path d="M239.266 372.594L239.902 373.02C239.379 374.121 238.915 375.271 238.524 376.439L237.855 376.095C238.256 374.899 238.731 373.721 239.266 372.594ZM241.057 369.347C241.714 368.315 242.438 367.325 243.208 366.404L243.75 366.976C242.999 367.875 242.292 368.842 241.651 369.85L241.057 369.347ZM236.849 379.806L237.543 380.061C237.284 381.293 237.093 382.562 236.974 383.835L236.267 383.672C236.389 382.368 236.585 381.067 236.849 379.806ZM245.692 363.808C246.567 363.01 247.502 362.267 248.471 361.602L248.888 362.289C247.942 362.939 247.03 363.664 246.175 364.443L245.692 363.808ZM236.117 387.638L236.827 387.706C236.849 389 236.941 390.315 237.103 391.617L236.399 391.643C236.233 390.311 236.139 388.963 236.117 387.638ZM251.504 359.814C252.547 359.293 253.638 358.841 254.745 358.469L255.013 359.23C253.932 359.593 252.867 360.035 251.848 360.543L251.504 359.814ZM237.106 395.633L237.794 395.512C238.091 396.797 238.46 398.084 238.89 399.337L238.229 399.551C237.789 398.267 237.411 396.949 237.106 395.633ZM258.147 357.584C259.299 357.368 260.481 357.229 261.662 357.171L261.766 357.963C260.614 358.02 259.459 358.155 258.335 358.366L258.147 357.584ZM239.751 403.339L240.376 403.036C240.933 404.239 241.557 405.422 242.231 406.555L241.652 406.944C240.961 405.784 240.321 404.571 239.751 403.339ZM265.239 357.238C266.433 357.34 267.64 357.524 268.828 357.785L268.762 358.563C267.603 358.308 266.424 358.128 265.259 358.028L265.239 357.238ZM243.906 410.313L244.431 409.843C245.216 410.891 246.062 411.904 246.946 412.851L246.482 413.394C245.577 412.424 244.71 411.387 243.906 410.313ZM272.378 358.807C273.544 359.224 274.708 359.723 275.836 360.29L275.603 361.007C274.501 360.454 273.366 359.967 272.228 359.56L272.378 358.807ZM249.34 416.142L249.736 415.533C250.7 416.363 251.717 417.144 252.76 417.855C253.073 418.069 253.394 418.28 253.713 418.482L253.413 419.162C253.086 418.955 252.758 418.739 252.437 418.52C251.369 417.792 250.328 416.992 249.34 416.142ZM279.151 362.206C279.314 362.313 279.476 362.422 279.638 362.533C280.543 363.15 281.432 363.821 282.28 364.527L281.895 365.145C281.067 364.456 280.198 363.8 279.314 363.197C279.156 363.089 278.998 362.983 278.839 362.879L279.151 362.206ZM256.974 420.292C258.083 420.824 259.224 421.289 260.366 421.673L260.228 422.43C259.058 422.037 257.889 421.561 256.753 421.016L256.974 420.292ZM284.723 367.774L285.177 367.22C286.097 368.175 286.979 369.196 287.799 370.255L287.282 370.736C286.482 369.703 285.621 368.706 284.723 367.774ZM263.841 422.601C265.002 422.832 266.181 422.988 267.345 423.064L267.378 423.856C266.185 423.778 264.977 423.618 263.788 423.381L263.841 422.601ZM289.532 373.985L290.103 373.583C290.811 374.73 291.47 375.933 292.059 377.156L291.441 377.473C290.865 376.278 290.223 375.105 289.532 373.985ZM270.833 423.058C271.982 422.978 273.131 422.819 274.25 422.584L274.45 423.365C273.304 423.605 272.126 423.768 270.949 423.85L270.833 423.058ZM292.984 381.147L293.64 380.92C294.1 382.196 294.498 383.508 294.824 384.821L294.141 384.957C293.822 383.675 293.433 382.393 292.984 381.147ZM277.552 421.652C278.624 421.267 279.679 420.802 280.688 420.272L281.044 420.996C280.011 421.539 278.93 422.015 277.831 422.409L277.552 421.652ZM294.894 388.845L295.595 388.804C295.782 390.135 295.899 391.483 295.942 392.81L295.232 392.757C295.19 391.461 295.076 390.145 294.894 388.845ZM283.614 418.463C284.546 417.793 285.445 417.048 286.285 416.25L286.778 416.875C285.917 417.694 284.996 418.457 284.041 419.143L283.614 418.463ZM295.149 396.635L295.858 396.784C295.757 398.093 295.583 399.4 295.34 400.669L294.645 400.428C294.882 399.189 295.052 397.913 295.149 396.635ZM288.663 413.662C289.398 412.747 290.087 411.763 290.711 410.74L291.311 411.231C290.673 412.279 289.967 413.286 289.214 414.224L288.663 413.662ZM293.725 404.076L294.398 404.407C294.017 405.614 293.563 406.804 293.047 407.944L292.406 407.529C292.909 406.417 293.353 405.255 293.725 404.076Z" fill="#000054"/>
<g opacity="0.876899">
<path d="M148.5 597.078C142.903 597.078 138.35 591.854 138.35 585.433C138.35 579.011 142.903 573.787 148.5 573.787C154.097 573.787 158.65 579.011 158.65 585.433C158.65 591.854 154.097 597.078 148.5 597.078ZM148.5 575.393C143.675 575.393 139.75 579.897 139.75 585.433C139.75 590.968 143.675 595.472 148.5 595.472C153.325 595.472 157.25 590.968 157.25 585.433C157.25 579.897 153.325 575.393 148.5 575.393Z" fill="#000054"/>
</g>
<path d="M517.917 409.817C512.079 422.396 497.597 426.175 485.57 418.258C473.543 410.34 468.526 393.725 474.363 381.146C480.201 368.567 494.684 364.788 506.71 372.705C518.737 380.623 523.755 397.238 517.917 409.817Z" fill="#D0D0FF"/>
<path d="M493.613 407.286L492.131 410.473L488.256 407.924L489.671 404.879C487.005 402.899 484.7 400.372 483.545 398.223L487.928 394.657C489.222 396.971 491.304 399.279 493.421 400.671C495.262 401.882 496.109 401.914 496.43 401.224C497.604 398.696 486.023 393.74 489.506 386.245C491.014 382.999 494.536 381.752 499.348 384.057L500.803 380.927L504.678 383.476L503.25 386.547C505.188 388.085 506.914 389.935 508.053 391.884L503.82 395.512C502.39 393.258 500.832 391.595 499.156 390.492C497.259 389.244 496.387 389.422 496.067 390.112C494.946 392.523 506.513 397.51 503.071 404.918C501.629 408.019 498.231 409.31 493.613 407.286Z" fill="white"/>
<path d="M468.965 425.704C471.411 433.713 467.033 443.286 459.187 447.085C451.342 450.884 442.999 447.471 440.552 439.461C438.106 431.452 442.483 421.88 450.329 418.081C458.175 414.282 466.518 417.694 468.965 425.704Z" fill="#D0D0FF"/>
<path d="M458.264 438.462L458.888 440.501L456.347 441.729L455.751 439.781C453.916 440.541 452.017 440.89 450.727 440.732L451.129 436.91C452.538 437.052 454.263 436.745 455.651 436.075C456.858 435.491 457.212 435.025 457.077 434.583C456.582 432.966 450.009 437.64 448.542 432.845C447.906 430.768 448.849 428.308 451.674 426.458L451.062 424.456L453.602 423.228L454.204 425.193C455.575 424.678 456.981 424.401 458.188 424.492L457.87 428.253C456.429 428.21 455.162 428.463 454.064 428.994C452.82 429.596 452.536 430.155 452.671 430.596C453.143 432.139 459.723 427.484 461.173 432.224C461.78 434.208 460.904 436.615 458.264 438.462Z" fill="white"/>
<path d="M503.613 449.603C501.071 455.556 494.364 457.511 488.632 453.971C482.901 450.431 480.315 442.736 482.858 436.783C485.4 430.831 492.107 428.875 497.838 432.415C503.57 435.955 506.155 443.651 503.613 449.603Z" fill="#D0D0FF"/>
<path d="M492.226 448.746L491.58 450.256L489.731 449.115L490.348 447.673C489.072 446.781 487.958 445.63 487.387 444.64L489.384 442.915C490.023 443.98 491.03 445.032 492.04 445.655C492.919 446.197 493.315 446.201 493.455 445.875C493.967 444.677 488.48 442.511 489.999 438.96C490.657 437.422 492.285 436.793 494.569 437.808L495.203 436.324L497.052 437.466L496.429 438.921C497.358 439.615 498.192 440.457 498.753 441.354L496.827 443.106C496.125 442.071 495.372 441.313 494.573 440.82C493.668 440.261 493.263 440.355 493.123 440.682C492.634 441.825 498.115 444.005 496.613 447.515C495.985 448.984 494.415 449.632 492.226 448.746Z" fill="white"/>
<path d="M448.55 401.761H446.722V386.735H448.55V401.761Z" fill="#000054"/>
<path d="M454.184 395.297H441.088V393.2H454.184V395.297Z" fill="#000054"/>
<path d="M463.308 374.67H460.177V348.934H463.308V374.67Z" fill="#000054"/>
<path d="M472.958 363.598H450.527V360.006H472.958V363.598Z" fill="#000054"/>
<path d="M518.372 473.676H515.564V450.587H518.372V473.676Z" fill="#000054"/>
<path d="M527.031 463.742H506.907V460.52H527.031V463.742Z" fill="#000054"/>
</g>
<mask id="mask2_6_2" style="mask-type:luminance" maskUnits="userSpaceOnUse" x="61" y="265" width="560" height="643">
<path d="M61 265H621V907.51H61V265Z" fill="white"/>
</mask>
<g mask="url(#mask2_6_2)">
<path d="M488 694.258H197.082V447.481H488V694.258Z" fill="white"/>
<path d="M488.7 695.061H196.382V446.678H488.7V695.061ZM197.782 693.454H487.3V448.284H197.782V693.454Z" fill="#000054"/>
<path d="M397.258 479.552H287.824V477.946H397.258V479.552Z" fill="#3334CF"/>
<path d="M361.935 497.221H323.147V495.615H361.935V497.221Z" fill="#3334CF"/>
<path d="M573.07 806.759H120.574V805.555H573.07V806.759Z" fill="#1B1B42"/>
<path d="M241.041 666.061H217.241V636.662H241.041V666.061Z" fill="#D0D0FF"/>
<path d="M278.841 666.719H255.041V598.393H278.841V666.719Z" fill="#D0D0FF"/>
<path d="M316.641 666.98H292.841V540.936H316.641V666.98Z" fill="#D0D0FF"/>
<path d="M354.441 666.914H330.641V577.989H354.441V666.914Z" fill="#D0D0FF"/>
<path d="M392.241 666.67H368.441V549.85H392.241V666.67Z" fill="#D0D0FF"/>
<path d="M430.041 666.66H406.241V561.146H430.041V666.66Z" fill="#D0D0FF"/>
<path d="M467.841 666.801H444.041V504.421H467.841V666.801Z" fill="#D0D0FF"/>
<path d="M228.072 641.641L267.456 602.669L304.224 545.004L342.649 583.886L378.42 554.938L417.091 566.413L456.513 509.519" stroke="#2A00FF" stroke-width="15" stroke-miterlimit="18"/>
</g>
<mask id="mask3_6_2" style="mask-type:luminance" maskUnits="userSpaceOnUse" x="61" y="265" width="560" height="643">
<path d="M61 265H621V907.51H61V265Z" fill="white"/>
</mask>
<g mask="url(#mask3_6_2)">
<path d="M192.397 741.319C194.641 727.507 193.095 712.853 188.059 700.21C183.024 687.567 174.528 677.006 164.225 670.583C169.459 678.053 170.839 688.369 171.403 698.164C171.966 707.959 171.965 718.077 175.117 727.108C178.27 736.139 185.661 743.903 193.71 742.676L192.397 741.319Z" fill="#3334CF"/>
<path d="M192.544 744.769C190.315 730.956 191.883 716.315 196.943 703.698C202.003 691.081 210.526 680.558 220.853 674.179C215.601 681.625 214.206 691.93 213.628 701.717C213.052 711.505 213.039 721.619 209.87 730.632C206.701 739.646 199.288 747.378 191.228 746.12L192.544 744.769Z" fill="#3334CF"/>
<path d="M183.237 744.832C177.974 735.097 176.476 722.505 179.248 711.303C182.02 700.102 189.011 690.494 197.862 685.723C196.08 699.856 205.39 713.302 203.829 727.471C202.818 736.643 196.815 744.76 189.373 747.018L183.237 744.832Z" fill="#D0D0FF"/>
<path d="M187.117 757.049C187.182 743.025 191.513 729.112 199.266 718.02C207.019 706.928 218.151 698.718 230.494 694.99C223.461 700.988 220.097 710.71 217.712 720.125C215.328 729.54 213.498 739.409 208.442 747.442C203.387 755.474 193.96 761.227 185.447 758.05L187.117 757.049Z" fill="#000054"/>
<path d="M190.99 757.812C190.924 743.783 186.94 729.858 179.815 718.749C172.689 707.639 162.461 699.407 151.123 695.656C157.585 701.668 160.679 711.399 162.873 720.822C165.067 730.244 166.752 740.121 171.399 748.165C176.046 756.208 184.706 761.98 192.523 758.816L190.99 757.812Z" fill="#000054"/>
<path d="M211.58 806.157H167.234L159.61 753.179H219.204L211.58 806.157Z" fill="white"/>
<path d="M212.025 806.759H166.789L158.992 752.576H219.823L212.025 806.759ZM167.68 805.554H211.134L218.585 753.781H160.229L167.68 805.554Z" fill="#000054"/>
</g>
<mask id="mask4_6_2" style="mask-type:luminance" maskUnits="userSpaceOnUse" x="61" y="265" width="560" height="643">
<path d="M61 265H621V907.51H61V265Z" fill="white"/>
</mask>
<g mask="url(#mask4_6_2)">
<path d="M270.317 528.466H135.194V406.689H270.317V528.466Z" fill="white"/>
<path d="M271.017 529.269H134.494V405.886H271.017V529.269ZM135.894 527.663H269.617V407.492H135.894V527.663Z" fill="#000054"/>
<path d="M251.835 508.789H153.859V463.431H154.594V507.946H251.835V508.789Z" fill="#000054"/>
<path d="M184.026 446.44H153.551V426.639H184.026V446.44Z" fill="#D0D0FF"/>
<path d="M249.605 429.391H196.891V428.548H249.605V429.391Z" fill="#000054"/>
<path d="M249.605 436.961H196.891V436.118H249.605V436.961Z" fill="#D0D0FF"/>
<path d="M249.605 444.53H196.891V443.687H249.605V444.53Z" fill="#D0D0FF"/>
<path d="M174.238 508.368H167.873V481.992H174.238V508.368Z" fill="#D0D0FF"/>
<path d="M180.602 508.369H174.238V469.157H180.602V508.369Z" fill="#000054"/>
<path d="M197.982 508.366H191.617V473.643H197.982V508.366Z" fill="#D0D0FF"/>
<path d="M204.347 508.366H197.982V495.515H204.347V508.366Z" fill="#000054"/>
<path d="M221.726 508.623H215.362V481.019H221.726V508.623Z" fill="#D0D0FF"/>
<path d="M228.09 508.623H221.726V474.915H228.09V508.623Z" fill="#000054"/>
<path d="M245.47 508.298H239.106V491.64H245.47V508.298Z" fill="#D0D0FF"/>
<path d="M251.835 508.298H245.47V468.554H251.835V508.298Z" fill="#000054"/>
</g>
<mask id="mask5_6_2" style="mask-type:luminance" maskUnits="userSpaceOnUse" x="61" y="265" width="560" height="643">
<path d="M61 265H621V907.51H61V265Z" fill="white"/>
</mask>
<g mask="url(#mask5_6_2)">
<path d="M531.778 784.41L535.978 805.956L507.453 805.894L519.353 794.11L518.478 783.406L531.778 784.41Z" fill="#1B1B42"/>
<path d="M523.74 799.127L519.015 794.571L519.691 793.649L524.416 798.204L523.74 799.127Z" fill="#EBEBFF"/>
<path d="M475.603 784.071L477.703 805.956H447.078L461.078 794.11V783.268L475.603 784.071Z" fill="#1B1B42"/>
<path d="M465.465 799.127L460.74 794.571L461.416 793.649L466.141 798.204L465.465 799.127Z" fill="#EBEBFF"/>
<path d="M536.853 787.02L532.303 787.092L518.8 787.301L511.303 787.422C503.953 758.276 497.072 729.708 491.444 702.715C490.338 697.422 489.281 692.186 488.287 687.029C484.584 667.907 481.63 649.716 479.747 632.858C479.341 629.236 478.984 625.678 478.683 622.184C478.438 619.397 478.228 616.65 478.053 613.944L511.653 620.369C511.989 624.023 512.346 627.686 512.724 631.372C517.785 681.142 526.43 733.451 536.853 787.02Z" fill="#3334CF"/>
<path d="M493.803 619.164L492.739 632.271L488.448 685.021L488.287 687.029L480.153 787.02H455.072C455.569 729.178 457.214 674.195 463.822 633.581C464.305 630.585 464.823 627.678 465.362 624.842L478.683 622.184L493.803 619.164Z" fill="#3334CF"/>
<path d="M491.709 706.381L482.143 649.894L482.83 649.741L492.397 706.228L491.709 706.381Z" fill="#1B1B42"/>
<path d="M512.724 631.372L492.739 632.272L479.747 632.858L463.822 633.581C464.305 630.585 464.823 627.678 465.362 624.843L478.683 622.184C478.438 619.398 478.228 616.651 478.053 613.944L511.653 620.369C511.989 624.024 512.346 627.686 512.724 631.372Z" fill="#1B1B42"/>
<path d="M475.34 558.935L488.212 557.089L515.084 563.551L515.238 619.132C515.242 620.656 514.697 622.114 513.731 623.16C512.843 624.123 511.668 624.661 510.446 624.666L465.363 624.843L456.674 594.751L465.041 566.32L475.34 558.935Z" fill="#FFA120"/>
<path d="M491.395 571.114C488.616 571.114 485.922 569.981 483.823 567.715L484.183 567.276C488.181 571.594 494.464 571.587 499.122 567.262L499.452 567.73C497.023 569.986 494.167 571.114 491.395 571.114Z" fill="#1B1B42"/>
<path d="M448.303 593.665L459.853 610.33L461.953 610.932L463.685 591.536L451.865 585.137L448.303 593.665Z" fill="#FFBC95"/>
<path d="M486.803 555.315L469.935 558.378C465.266 559.226 461.258 562.653 459.215 567.544L451.865 585.137L463.685 591.536L464.928 577.602L486.803 555.315Z" fill="#FFA120"/>
<path d="M527.137 607.68C526.731 614.563 523.105 617.494 518.499 618.699C517.582 617.406 517.023 615.751 517.023 613.944C517.023 609.808 519.948 606.451 523.553 606.451C524.876 606.451 526.108 606.909 527.137 607.68Z" fill="#FE5B52"/>
<path d="M461.514 615.046L460.992 614.979L464.667 577.568L465.189 577.636L461.514 615.046Z" fill="#1B1B42"/>
<path d="M539.209 520.443V541.956L530.56 549.006H539.209H571.381V520.443H539.209Z" fill="white"/>
<path d="M571.722 549.398H529.491L538.868 541.754V520.052H571.722V549.398ZM531.631 548.614H571.04V520.835H539.551V542.158L531.631 548.614Z" fill="#000054"/>
<path d="M554.856 542.318L549.603 536.514L550.55 535.386L554.514 539.766L561.255 525.587L562.453 526.337L554.856 542.318Z" fill="#000054"/>
<path d="M520.407 566.665C519.121 561.955 515.198 558.82 510.572 558.806L492.878 558.753L504.631 576.697L508.621 588.414L525.009 583.519L520.407 566.665Z" fill="#FFA120"/>
<path d="M530.416 604.457C530.39 610.88 526.897 614.104 522.32 615.869C517.549 617.707 511.608 617.963 507.17 618.6C499.874 619.645 492.556 620.334 485.241 620.94L466.728 623.723L464.402 620.551C466.6 616.625 472.845 611.008 484.42 612.254L513.579 601.05L509.562 589.516L525.719 584.817L530.01 600.192C530.303 601.754 530.431 603.167 530.416 604.457Z" fill="#FFBC95"/>
<path d="M513.062 601.384L504.596 577.07L505.126 576.83L513.593 601.144L513.062 601.384Z" fill="#1B1B42"/>
<path d="M491.487 566.09C487.277 566.09 483.863 562.174 483.863 557.343V538.382H499.112V557.343C499.112 562.174 495.698 566.09 491.487 566.09Z" fill="#FFBC95"/>
<path d="M497.32 511.337C497.22 509.991 497.266 508.603 497.621 507.272C497.969 505.95 498.715 504.703 499.789 503.955C500.323 503.586 500.915 503.328 501.524 503.197C502.133 503.063 502.755 503.049 503.364 503.115C504.586 503.25 505.761 503.727 506.795 504.458C507.828 505.186 508.717 506.213 509.27 507.47C509.833 508.719 509.965 510.227 509.629 511.584C509.299 512.948 508.592 514.132 507.772 515.138C506.934 516.134 505.979 516.98 504.97 517.71L504.855 517.517C505.813 516.724 506.729 515.862 507.5 514.859C508.271 513.864 508.91 512.717 509.183 511.458C509.459 510.206 509.345 508.865 508.82 507.73C508.311 506.585 507.473 505.65 506.513 504.96C505.551 504.267 504.446 503.809 503.309 503.674C502.176 503.531 501 503.74 500.016 504.387C499.032 505.036 498.325 506.152 497.96 507.394C497.77 508.015 497.654 508.667 497.586 509.326C497.521 509.986 497.515 510.653 497.526 511.32L497.32 511.337Z" fill="#1B1B42"/>
<path d="M508.721 511.395C508.747 514.928 506.244 517.848 503.131 517.917C500.018 517.986 497.473 515.178 497.446 511.646C497.42 508.113 499.923 505.193 503.036 505.124C506.15 505.054 508.695 507.862 508.721 511.395Z" fill="#1B1B42"/>
<path d="M507.734 546.854L504.673 541.673L505.882 547.453L494.567 542.217L475.884 552.149L477.335 534.464C472.309 531.784 468.626 513.871 487.604 510.418C491.051 509.791 494.596 510.063 497.813 511.531C507.618 516.003 511.014 528.363 512.04 545.466L507.734 546.854Z" fill="#1B1B42"/>
<path d="M494.242 546.342C492.645 551.849 488.68 553.896 483.805 555.392L483.58 548.202L494.242 546.342Z" fill="#2F2F32" fill-opacity="0.5"/>
<path d="M498.628 519.907L498.314 544.341C498.314 544.341 489.323 552.015 482.974 550.007C480.844 549.336 479.381 546.629 478.378 543.241C477.901 541.63 477.529 539.857 477.235 538.074C476.195 531.668 476.196 525.102 476.196 525.102L498.628 519.907Z" fill="#FFBC95"/>
<path d="M480.275 535.278C480.281 536.005 479.901 536.602 479.426 536.613C478.953 536.624 478.564 536.043 478.559 535.316C478.553 534.589 478.933 533.992 479.407 533.981C479.881 533.97 480.27 534.551 480.275 535.278Z" fill="#1B1B42"/>
<path d="M486.856 534.597C486.863 535.439 486.434 536.131 485.899 536.143C485.364 536.155 484.926 535.482 484.919 534.641C484.913 533.8 485.342 533.108 485.876 533.096C486.411 533.083 486.85 533.756 486.856 534.597Z" fill="#1B1B42"/>
<path d="M488.993 531.43C488.961 531.799 487.866 531.909 486.649 531.696C485.431 531.484 484.395 531.577 484.584 530.661C484.739 529.913 485.7 529.955 486.918 530.168C488.136 530.38 489.021 531.106 488.993 531.43Z" fill="#1B1B42"/>
<path d="M477.121 532.479C477.166 532.843 478.1 532.806 479.121 532.432C480.143 532.058 481.026 532.012 480.821 531.124C480.653 530.399 479.84 530.57 478.818 530.944C477.796 531.318 477.081 532.16 477.121 532.479Z" fill="#1B1B42"/>
<path d="M493.255 537.686C493.267 539.256 492.155 540.553 490.772 540.584C489.389 540.615 488.258 539.368 488.246 537.798C488.234 536.229 489.346 534.931 490.729 534.9C492.113 534.869 493.244 536.116 493.255 537.686Z" fill="#FE5B52"/>
<path d="M479.552 540.813C479.559 541.805 479.12 542.68 478.446 543.207C477.968 541.593 477.595 539.816 477.299 538.029C478.557 538.161 479.541 539.348 479.552 540.813Z" fill="#FE5B52"/>
<path d="M482.268 536.424C482.297 536.676 482.246 536.94 482.162 537.171C482.076 537.404 481.961 537.607 481.846 537.792C481.618 538.163 481.394 538.488 481.338 538.777C481.308 538.916 481.319 539.062 481.352 539.207C481.382 539.348 481.454 539.474 481.555 539.596C481.761 539.838 482.084 540.02 482.435 540.156L482.412 540.468C481.997 540.533 481.544 540.455 481.153 540.137C480.958 539.98 480.791 539.743 480.7 539.467C480.623 539.196 480.585 538.89 480.654 538.599C480.797 538.022 481.124 537.671 481.381 537.364C481.65 537.05 481.878 536.784 481.992 536.409L482.268 536.424Z" fill="#1B1B42"/>
<path d="M481.659 542.968C482.605 546.271 486.544 544.177 486.823 541.365L481.659 542.968Z" fill="white"/>
<path d="M475.471 528.942C482.073 528.783 487.609 527.974 492.806 524.991C493.405 529.846 495.272 532.156 497.78 533.404L503.005 528.333L500.212 518.385L485.912 517.809L474.91 524.296L475.471 528.942Z" fill="#1B1B42"/>
<path d="M501.956 537.07C500.547 539.402 498.254 540.405 496.835 539.311C495.416 538.216 495.408 535.437 496.817 533.105C498.226 530.773 500.519 529.77 501.938 530.864C503.357 531.959 503.365 534.737 501.956 537.07Z" fill="#FFBC95"/>
<path d="M498.167 536.772C498.062 536.36 498.028 535.922 498.069 535.476C498.109 535.031 498.238 534.572 498.476 534.175C498.714 533.778 499.057 533.466 499.427 533.28C499.797 533.091 500.189 533.012 500.571 533.031L500.62 533.337C500.293 533.52 499.987 533.689 499.719 533.895C499.452 534.1 499.228 534.338 499.052 534.621C498.874 534.902 498.754 535.236 498.659 535.596C498.566 535.958 498.508 536.346 498.441 536.751L498.167 536.772Z" fill="#1B1B42"/>
<path d="M504.935 517.614C504.202 517.148 503.573 516.606 502.952 516.072L501.158 514.446C500.57 513.909 499.987 513.379 499.382 512.869C498.777 512.351 498.153 511.872 497.454 511.344C498.296 511.22 499.144 511.429 499.921 511.769C500.699 512.119 501.412 512.618 502.048 513.203C502.686 513.788 503.25 514.459 503.741 515.191C504.224 515.93 504.65 516.716 504.935 517.614Z" fill="#FFA120"/>
<path d="M480.387 624.129H461.837V617.838H480.387V624.129Z" fill="#1B1B42"/>
<path d="M467.787 624.131H425.787L407.353 578.45H449.353L467.787 624.131Z" fill="#EBEBFF"/>
<path d="M452.241 622.088C451.255 622.294 450.667 623.22 450.621 624.322V619.342C450.621 618.339 449.997 617.424 449.128 617.31C448.132 617.18 447.292 618.043 447.245 619.144V617.137C447.245 616.121 446.608 615.196 445.728 615.096C444.715 614.979 443.861 615.888 443.861 617.026V619.144C443.815 618.043 442.975 617.18 441.979 617.31C441.11 617.424 440.486 618.339 440.486 619.342V623.294C440.439 622.285 439.769 621.031 438.853 620.933C436.972 620.733 437.386 624.526 437.386 624.526C437.934 628.362 438.923 628.786 440.928 628.95C444.055 629.207 447.223 629.197 450.428 628.947C452.443 628.79 452.76 628.541 453.641 625.1C453.938 623.62 453.684 621.787 452.241 622.088Z" fill="#FFBC95"/>
<path d="M440.531 620.579C440.671 621.389 440.721 622.203 440.748 623.017C440.759 623.424 440.76 623.831 440.746 624.239C440.733 624.647 440.707 625.055 440.648 625.464L440.443 625.471C440.364 625.066 440.318 624.66 440.285 624.254C440.252 623.847 440.234 623.44 440.226 623.033C440.213 622.218 440.225 621.403 440.326 620.585L440.531 620.579Z" fill="#D18572"/>
<path d="M443.964 619.141C444.106 620.001 444.158 620.865 444.185 621.729C444.197 622.161 444.199 622.593 444.186 623.026C444.173 623.459 444.148 623.892 444.089 624.327L443.884 624.333C443.805 623.903 443.758 623.472 443.725 623.041C443.691 622.609 443.672 622.178 443.663 621.745C443.649 620.881 443.659 620.016 443.759 619.147L443.964 619.141Z" fill="#D18572"/>
<path d="M447.348 619.139C447.499 619.953 447.56 620.771 447.598 621.59C447.615 622 447.621 622.41 447.613 622.821C447.605 623.233 447.584 623.644 447.531 624.057L447.326 624.068C447.242 623.661 447.19 623.253 447.152 622.844C447.113 622.435 447.089 622.026 447.076 621.616C447.052 620.796 447.053 619.975 447.143 619.149L447.348 619.139Z" fill="#D18572"/>
<path d="M451.731 622.335C451.573 622.567 451.463 622.85 451.356 623.139C451.252 623.43 451.152 623.728 451.055 624.03C450.957 624.331 450.858 624.634 450.75 624.935C450.642 625.237 450.528 625.539 450.386 625.834L450.188 625.772C450.198 625.432 450.245 625.102 450.31 624.776C450.375 624.451 450.461 624.13 450.567 623.816C450.675 623.503 450.797 623.193 450.959 622.9C451.12 622.614 451.313 622.314 451.614 622.142L451.731 622.335Z" fill="#D18572"/>
</g>
</g>
</svg>
